<mxGraphModel dx="1434" dy="754" grid="1" gridSize="10" guides="1" tooltips="1" connect="1" arrows="1" fold="1" page="1" pageScale="1" pageWidth="1169" pageHeight="827" math="0" shadow="0">
  <root>
    <mxCell id="0" />
    <mxCell id="1" parent="0" />
    <mxCell id="uN_Ylqg2Y2n6OK2aKx1O-1" value="External Clients" style="swimlane;fontStyle=1;childLayout=stackLayout;horizontal=1;startSize=30;horizontalStack=0;resizeParent=1;resizeParentMax=0;resizeLast=0;collapsible=1;marginBottom=0;whiteSpace=wrap;html=1;fillColor=#f5f5f5;strokeColor=#666666;" parent="1" vertex="1">
      <mxGeometry x="40" y="130" width="160" height="150" as="geometry" />
    </mxCell>
    <mxCell id="uN_Ylqg2Y2n6OK2aKx1O-2" value="HTTP Client&lt;br&gt;(e.g. Browser, curl)" style="text;html=1;strokeColor=none;fillColor=none;align=center;verticalAlign=middle;whiteSpace=wrap;rounded=0;fontStyle=0" parent="uN_Ylqg2Y2n6OK2aKx1O-1" vertex="1">
      <mxGeometry y="30" width="160" height="60" as="geometry" />
    </mxCell>
    <mxCell id="uN_Ylqg2Y2n6OK2aKx1O-3" value="gRPC Client&lt;br&gt;(e.g. examples/grpc)" style="text;html=1;strokeColor=none;fillColor=none;align=center;verticalAlign=middle;whiteSpace=wrap;rounded=0;" parent="uN_Ylqg2Y2n6OK2aKx1O-1" vertex="1">
      <mxGeometry y="90" width="160" height="60" as="geometry" />
    </mxCell>
    <mxCell id="uN_Ylqg2Y2n6OK2aKx1O-4" value="API Service Boundary" style="swimlane;startSize=30;collapsible=0;childLayout=stackLayout;resizeParent=0;resizeLast=0;horizontal=0;fontStyle=1;html=1;strokeColor=#333333;fillColor=none;" parent="1" vertex="1">
      <mxGeometry x="280" y="40" width="640" height="560" as="geometry" />
    </mxCell>
    <mxCell id="uN_Ylqg2Y2n6OK2aKx1O-5" value="Entrypoints" style="swimlane;startSize=20;collapsible=0;childLayout=stackLayout;resizeParent=0;resizeLast=0;horizontal=0;fontStyle=0;html=1;horizontalStack=0;resizeParentMax=0;marginBottom=0;strokeColor=none;fillColor=none;" parent="uN_Ylqg2Y2n6OK2aKx1O-4" vertex="1">
      <mxGeometry y="30" width="640" height="140" as="geometry" />
    </mxCell>
    <mxCell id="uN_Ylqg2Y2n6OK2aKx1O-6" value="gRPC-Gateway&lt;br&gt;&lt;b&gt;petstore.pb.gw.go&lt;/b&gt;" style="rounded=1;whiteSpace=wrap;html=1;fillColor=#dae8fc;strokeColor=#6c8ebf;" parent="uN_Ylqg2Y2n6OK2aKx1O-5" vertex="1">
      <mxGeometry x="40" y="20" width="160" height="100" as="geometry" />
    </mxCell>
    <mxCell id="uN_Ylqg2Y2n6OK2aKx1O-7" value="gRPC Server&lt;br&gt;&lt;b&gt;internal/server/grpc/server.go&lt;/b&gt;" style="rounded=1;whiteSpace=wrap;html=1;fillColor=#dae8fc;strokeColor=#6c8ebf;" parent="uN_Ylqg2Y2n6OK2aKx1O-5" vertex="1">
      <mxGeometry x="380" y="20" width="220" height="100" as="geometry" />
    </mxCell>
    <mxCell id="uN_Ylqg2Y2n6OK2aKx1O-8" value="Service Implementation" style="swimlane;startSize=20;collapsible=0;childLayout=stackLayout;resizeParent=0;resizeLast=0;horizontal=0;fontStyle=0;html=1;horizontalStack=0;resizeParentMax=0;marginBottom=0;strokeColor=none;fillColor=none;" parent="uN_Ylqg2Y2n6OK2aKx1O-4" vertex="1">
      <mxGeometry y="170" width="640" height="120" as="geometry" />
    </mxCell>
    <mxCell id="uN_Ylqg2Y2n6OK2aKx1O-9" value="PetStore Service&lt;br&gt;&lt;b&gt;internal/petstore/petstore.go&lt;/b&gt;" style="rounded=1;whiteSpace=wrap;html=1;fillColor=#d5e8d4;strokeColor=#82b366;" parent="uN_Ylqg2Y2n6OK2aKx1O-8" vertex="1">
      <mxGeometry x="200" y="20" width="240" height="80" as="geometry" />
    </mxCell>
    <mxCell id="uN_Ylqg2Y2n6OK2aKx1O-10" value="Supporting Packages" style="swimlane;startSize=20;collapsible=0;childLayout=stackLayout;resizeParent=0;resizeLast=0;horizontal=0;fontStyle=0;html=1;horizontalStack=0;resizeParentMax=0;marginBottom=0;strokeColor=none;fillColor=none;" parent="uN_Ylqg2Y2n6OK2aKx1O-4" vertex="1">
      <mxGeometry y="290" width="640" height="120" as="geometry" />
    </mxCell>
    <mxCell id="uN_Ylqg2Y2n6OK2aKx1O-11" value="Config Loader&lt;br&gt;&lt;b&gt;internal/config/config.go&lt;/b&gt;" style="rounded=0;whiteSpace=wrap;html=1;fillColor=#ffe6cc;strokeColor=#d79b00;" parent="uN_Ylqg2Y2n6OK2aKx1O-10" vertex="1">
      <mxGeometry x="40" y="20" width="160" height="80" as="geometry" />
    </mxCell>
    <mxCell id="uN_Ylqg2Y2n6OK2aKx1O-12" value="Logger&lt;br&gt;&lt;b&gt;internal/log/log.go&lt;/b&gt;" style="rounded=0;whiteSpace=wrap;html=1;fillColor=#ffe6cc;strokeColor=#d79b00;" parent="uN_Ylqg2Y2n6OK2aKx1O-10" vertex="1">
      <mxGeometry x="240" y="20" width="160" height="80" as="geometry" />
    </mxCell>
    <mxCell id="uN_Ylqg2Y2n6OK2aKx1O-13" value="OpenTelemetry Tracer/Meter" style="rounded=0;whiteSpace=wrap;html=1;fillColor=#ffe6cc;strokeColor=#d79b00;" parent="uN_Ylqg2Y2n6OK2aKx1O-10" vertex="1">
      <mxGeometry x="440" y="20" width="160" height="80" as="geometry" />
    </mxCell>
    <mxCell id="uN_Ylqg2Y2n6OK2aKx1O-14" value="Build &amp;amp; Configuration" style="swimlane;startSize=20;collapsible=0;childLayout=stackLayout;resizeParent=0;resizeLast=0;horizontal=0;fontStyle=0;html=1;horizontalStack=0;resizeParentMax=0;marginBottom=0;strokeColor=none;fillColor=none;" parent="uN_Ylqg2Y2n6OK2aKx1O-4" vertex="1">
      <mxGeometry y="410" width="640" height="150" as="geometry" />
    </mxCell>
    <mxCell id="uN_Ylqg2Y2n6OK2aKx1O-15" value="Protobuf Definition&lt;br&gt;&lt;b&gt;api/v1/petstore.proto&lt;/b&gt;" style="shape=document;whiteSpace=wrap;html=1;boundedLbl=1;fillColor=#e1d5e7;strokeColor=#9673a6;" parent="uN_Ylqg2Y2n6OK2aKx1O-14" vertex="1">
      <mxGeometry x="40" y="30" width="140" height="90" as="geometry" />
    </mxCell>
    <mxCell id="uN_Ylqg2Y2n6OK2aKx1O-16" value="protoc" style="text;html=1;strokeColor=none;fillColor=none;align=center;verticalAlign=middle;whiteSpace=wrap;rounded=0;" parent="uN_Ylqg2Y2n6OK2aKx1O-14" vertex="1">
      <mxGeometry x="200" y="65" width="60" height="30" as="geometry" />
    </mxCell>
    <mxCell id="uN_Ylqg2Y2n6OK2aKx1O-17" value="Generated Go Code&lt;br&gt;(&lt;b&gt;*.pb.go, *.pb.gw.go, *_grpc.pb.go&lt;/b&gt;)" style="shape=folder;whiteSpace=wrap;html=1;boundedLbl=1;fillColor=#e1d5e7;strokeColor=#9673a6;tabWidth=80;tabHeight=20;tabPosition=left;align=left;marginLeft=10;" parent="uN_Ylqg2Y2n6OK2aKx1O-14" vertex="1">
      <mxGeometry x="280" y="30" width="180" height="90" as="geometry" />
    </mxCell>
    <mxCell id="uN_Ylqg2Y2n6OK2aKx1O-18" value="Config File&lt;br&gt;&lt;b&gt;config.yaml&lt;/b&gt;" style="shape=document;whiteSpace=wrap;html=1;boundedLbl=1;fillColor=#e1d5e7;strokeColor=#9673a6;" parent="uN_Ylqg2Y2n6OK2aKx1O-14" vertex="1">
      <mxGeometry x="480" y="30" width="120" height="90" as="geometry" />
    </mxCell>
    <mxCell id="uN_Ylqg2Y2n6OK2aKx1O-19" value="Data Persistence" style="swimlane;startSize=30;collapsible=0;childLayout=stackLayout;resizeParent=0;resizeLast=0;horizontal=0;fontStyle=1;html=1;strokeColor=#333333;fillColor=none;" parent="1" vertex="1">
      <mxGeometry x="960" y="200" width="160" height="120" as="geometry" />
    </mxCell>
    <mxCell id="uN_Ylqg2Y2n6OK2aKx1O-20" value="Database&lt;br&gt;(e.g. PostgreSQL)" style="shape=cylinder3;whiteSpace=wrap;html=1;boundedLbl=1;backgroundOutline=1;size=15;fillColor=#f8cecc;strokeColor=#b85450;" parent="uN_Ylqg2Y2n6OK2aKx1O-19" vertex="1">
      <mxGeometry x="20" y="40" width="120" height="70" as="geometry" />
    </mxCell>
    <mxCell id="uN_Ylqg2Y2n6OK2aKx1O-21" value="Observability" style="swimlane;startSize=30;collapsible=0;childLayout=stackLayout;resizeParent=0;resizeLast=0;horizontal=0;fontStyle=1;html=1;strokeColor=#333333;fillColor=none;" parent="1" vertex="1">
      <mxGeometry x="960" y="360" width="160" height="120" as="geometry" />
    </mxCell>
    <mxCell id="uN_Ylqg2Y2n6OK2aKx1O-22" value="OTel Collector" style="shape=cloud;whiteSpace=wrap;html=1;fillColor=#f8cecc;strokeColor=#b85450;" parent="uN_Ylqg2Y2n6OK2aKx1O-21" vertex="1">
      <mxGeometry x="20" y="40" width="120" height="70" as="geometry" />
    </mxCell>
    <mxCell id="uN_Ylqg2Y2n6OK2aKx1O-23" value="Entry Point&lt;br&gt;&lt;b&gt;cmd/server/main.go&lt;/b&gt;" style="ellipse;whiteSpace=wrap;html=1;aspect=fixed;fillColor=#dae8fc;strokeColor=#6c8ebf;" parent="1" vertex="1">
      <mxGeometry x="480" y="620" width="120" height="120" as="geometry" />
    </mxCell>
    <mxCell id="uN_Ylqg2Y2n6OK2aKx1O-25" value="HTTP Request" style="edgeStyle=orthogonalEdgeStyle;rounded=0;orthogonalLoop=1;jettySize=auto;html=1;exitX=1;exitY=0.25;exitDx=0;exitDy=0;entryX=0;entryY=0.25;entryDx=0;entryDy=0;" parent="1" source="uN_Ylqg2Y2n6OK2aKx1O-2" target="uN_Ylqg2Y2n6OK2aKx1O-6" edge="1">
      <mxGeometry relative="1" as="geometry" />
    </mxCell>
    <mxCell id="uN_Ylqg2Y2n6OK2aKx1O-26" value="gRPC Request" style="edgeStyle=orthogonalEdgeStyle;rounded=0;orthogonalLoop=1;jettySize=auto;html=1;exitX=1;exitY=0.75;exitDx=0;exitDy=0;entryX=0;entryY=0.75;entryDx=0;entryDy=0;" parent="1" source="uN_Ylqg2Y2n6OK2aKx1O-3" target="uN_Ylqg2Y2n6OK2aKx1O-7" edge="1">
      <mxGeometry relative="1" as="geometry" />
    </mxCell>
    <mxCell id="uN_Ylqg2Y2n6OK2aKx1O-27" value="Translates HTTP JSON to Protobuf" style="edgeStyle=orthogonalEdgeStyle;rounded=0;orthogonalLoop=1;jettySize=auto;html=1;exitX=1;exitY=0.5;exitDx=0;exitDy=0;entryX=0;entryY=0.5;entryDx=0;entryDy=0;" parent="1" source="uN_Ylqg2Y2n6OK2aKx1O-6" target="uN_Ylqg2Y2n6OK2aKx1O-7" edge="1">
      <mxGeometry relative="1" as="geometry">
        <mxPoint x="290" y="140" as="sourcePoint" />
        <Array as="points">
          <mxPoint x="260" y="145" />
          <mxPoint x="260" y="145" />
        </Array>
      </mxGeometry>
    </mxCell>
    <mxCell id="uN_Ylqg2Y2n6OK2aKx1O-28" value="Registers" style="endArrow=classic;html=1;rounded=0;exitX=0.5;exitY=1;exitDx=0;exitDy=0;entryX=0.5;entryY=0;entryDx=0;entryDy=0;" parent="1" source="uN_Ylqg2Y2n6OK2aKx1O-9" target="uN_Ylqg2Y2n6OK2aKx1O-7" edge="1">
      <mxGeometry width="50" height="50" relative="1" as="geometry">
        <mxPoint x="500" y="300" as="sourcePoint" />
        <mxPoint x="550" y="250" as="targetPoint" />
        <Array as="points">
          <mxPoint x="540" y="290" />
        </Array>
      </mxGeometry>
    </mxCell>
    <mxCell id="uN_Ylqg2Y2n6OK2aKx1O-29" value="Calls Method" style="endArrow=classic;html=1;rounded=0;exitX=0.5;exitY=1;exitDx=0;exitDy=0;entryX=0.5;entryY=0;entryDx=0;entryDy=0;" parent="1" source="uN_Ylqg2Y2n6OK2aKx1O-7" target="uN_Ylqg2Y2n6OK2aKx1O-9" edge="1">
      <mxGeometry width="50" height="50" relative="1" as="geometry">
        <mxPoint x="500" y="240" as="sourcePoint" />
        <mxPoint x="550" y="190" as="targetPoint" />
      </mxGeometry>
    </mxCell>
    <mxCell id="uN_Ylqg2Y2n6OK2aKx1O-30" value="SQL Query" style="endArrow=classic;html=1;rounded=0;exitX=1;exitY=0.5;exitDx=0;exitDy=0;entryX=0;entryY=0.5;entryDx=0;entryDy=0;" parent="1" source="uN_Ylqg2Y2n6OK2aKx1O-9" target="uN_Ylqg2Y2n6OK2aKx1O-20" edge="1">
      <mxGeometry width="50" height="50" relative="1" as="geometry">
        <mxPoint x="850" y="350" as="sourcePoint" />
        <mxPoint x="900" y="300" as="targetPoint" />
      </mxGeometry>
    </mxCell>
    <mxCell id="uN_Ylqg2Y2n6OK2aKx1O-31" value="Reads" style="endArrow=classic;html=1;rounded=0;exitX=0;exitY=0.5;exitDx=0;exitDy=0;entryX=1;entryY=0.5;entryDx=0;entryDy=0;dashed=1;" parent="1" source="uN_Ylqg2Y2n6OK2aKx1O-11" target="uN_Ylqg2Y2n6OK2aKx1O-18" edge="1">
      <mxGeometry width="50" height="50" relative="1" as="geometry">
        <mxPoint x="690" y="500" as="sourcePoint" />
        <mxPoint x="740" y="450" as="targetPoint" />
        <Array as="points">
          <mxPoint x="520" y="495" />
        </Array>
      </mxGeometry>
    </mxCell>
    <mxCell id="uN_Ylqg2Y2n6OK2aKx1O-32" value="Generates" style="endArrow=classic;html=1;rounded=0;exitX=1;exitY=0.5;exitDx=0;exitDy=0;entryX=0;entryY=0.5;entryDx=0;entryDy=0;dashed=1;" parent="1" source="uN_Ylqg2Y2n6OK2aKx1O-15" target="uN_Ylqg2Y2n6OK2aKx1O-17" edge="1">
      <mxGeometry width="50" height="50" relative="1" as="geometry">
        <mxPoint x="200" y="520" as="sourcePoint" />
        <mxPoint x="250" y="470" as="targetPoint" />
        <Array as="points">
          <mxPoint x="230" y="525" />
        </Array>
      </mxGeometry>
    </mxCell>
    <mxCell id="uN_Ylqg2Y2n6OK2aKx1O-33" value="Uses" style="endArrow=classic;html=1;rounded=0;exitX=0.5;exitY=0;exitDx=0;exitDy=0;entryX=0.5;entryY=1;entryDx=0;entryDy=0;dashed=1;" parent="1" source="uN_Ylqg2Y2n6OK2aKx1O-17" target="uN_Ylqg2Y2n6OK2aKx1O-6" edge="1">
      <mxGeometry width="50" height="50" relative="1" as="geometry">
        <mxPoint x="400" y="480" as="sourcePoint" />
        <mxPoint x="450" y="430" as="targetPoint" />
        <Array as="points">
          <mxPoint x="490" y="480" />
          <mxPoint x="490" y="200" />
          <mxPoint x="440" y="200" />
        </Array>
      </mxGeometry>
    </mxCell>
    <mxCell id="uN_Ylqg2Y2n6OK2aKx1O-34" value="Uses" style="endArrow=classic;html=1;rounded=0;exitX=0.5;exitY=0;exitDx=0;exitDy=0;entryX=0.5;entryY=1;entryDx=0;entryDy=0;dashed=1;" parent="1" source="uN_Ylqg2Y2n6OK2aKx1O-17" target="uN_Ylqg2Y2n6OK2aKx1O-7" edge="1">
      <mxGeometry width="50" height="50" relative="1" as="geometry">
        <mxPoint x="500" y="490" as="sourcePoint" />
        <mxPoint x="550" y="440" as="targetPoint" />
        <Array as="points">
          <mxPoint x="490" y="480" />
          <mxPoint x="490" y="200" />
        </Array>
      </mxGeometry>
    </mxCell>
    <mxCell id="uN_Ylqg2Y2n6OK2aKx1O-35" value="Initializes" style="endArrow=classic;html=1;rounded=0;exitX=0.5;exitY=0;exitDx=0;exitDy=0;entryX=0.5;entryY=1;entryDx=0;entryDy=0;" parent="1" source="uN_Ylqg2Y2n6OK2aKx1O-23" target="uN_Ylqg2Y2n6OK2aKx1O-7" edge="1">
      <mxGeometry width="50" height="50" relative="1" as="geometry">
        <mxPoint x="550" y="620" as="sourcePoint" />
        <mxPoint x="600" y="570" as="targetPoint" />
      </mxGeometry>
    </mxCell>
    <mxCell id="uN_Ylqg2Y2n6OK2aKx1O-36" value="Initializes" style="endArrow=classic;html=1;rounded=0;exitX=0.25;exitY=0;exitDx=0;exitDy=0;entryX=0.5;entryY=1;entryDx=0;entryDy=0;" parent="1" source="uN_Ylqg2Y2n6OK2aKx1O-23" target="uN_Ylqg2Y2n6OK2aKx1O-11" edge="1">
      <mxGeometry width="50" height="50" relative="1" as="geometry">
        <mxPoint x="520" y="630" as="sourcePoint" />
        <mxPoint x="570" y="580" as="targetPoint" />
        <Array as="points">
          <mxPoint x="510" y="580" />
          <mxPoint x="440" y="580" />
          <mxPoint x="440" y="450" />
        </Array>
      </mxGeometry>
    </mxCell>
    <mxCell id="uN_Ylqg2Y2n6OK2aKx1O-37" value="Initializes" style="endArrow=classic;html=1;rounded=0;exitX=0.5;exitY=0;exitDx=0;exitDy=0;entryX=0.5;entryY=1;entryDx=0;entryDy=0;" parent="1" source="uN_Ylqg2Y2n6OK2aKx1O-23" target="uN_Ylqg2Y2n6OK2aKx1O-12" edge="1">
      <mxGeometry width="50" height="50" relative="1" as="geometry">
        <mxPoint x="550" y="630" as="sourcePoint" />
        <mxPoint x="600" y="580" as="targetPoint" />
        <Array as="points">
          <mxPoint x="540" y="580" />
          <mxPoint x="480" y="580" />
        </Array>
      </mxGeometry>
    </mxCell>
    <mxCell id="uN_Ylqg2Y2n6OK2aKx1O-38" value="Initializes" style="endArrow=classic;html=1;rounded=0;exitX=0.75;exitY=0;exitDx=0;exitDy=0;entryX=0.5;entryY=1;entryDx=0;entryDy=0;" parent="1" source="uN_Ylqg2Y2n6OK2aKx1O-23" target="uN_Ylqg2Y2n6OK2aKx1O-13" edge="1">
      <mxGeometry width="50" height="50" relative="1" as="geometry">
        <mxPoint x="580" y="630" as="sourcePoint" />
        <mxPoint x="630" y="580" as="targetPoint" />
        <Array as="points">
          <mxPoint x="570" y="580" />
          <mxPoint x="640" y="580" />
        </Array>
      </mxGeometry>
    </mxCell>
    <mxCell id="uN_Ylqg2Y2n6OK2aKx1O-39" value="Exports Traces/Metrics" style="endArrow=classic;html=1;rounded=0;exitX=1;exitY=0.5;exitDx=0;exitDy=0;entryX=0;entryY=0.5;entryDx=0;entryDy=0;" parent="1" source="uN_Ylqg2Y2n6OK2aKx1O-13" target="uN_Ylqg2Y2n6OK2aKx1O-22" edge="1">
      <mxGeometry width="50" height="50" relative="1" as="geometry">
        <mxPoint x="850" y="460" as="sourcePoint" />
        <mxPoint x="900" y="410" as="targetPoint" />
      </mxGeometry>
    </mxCell>
    <mxCell id="uN_Ylqg2Y2n6OK2aKx1O-40" value="Writes to" style="endArrow=classic;html=1;rounded=0;exitX=0.5;exitY=0;exitDx=0;exitDy=0;entryX=0.5;entryY=1;entryDx=0;entryDy=0;dashed=1;" parent="1" source="uN_Ylqg2Y2n6OK2aKx1O-9" target="uN_Ylqg2Y2n6OK2aKx1O-12" edge="1">
      <mxGeometry width="50" height="50" relative="1" as="geometry">
        <mxPoint x="550" y="380" as="sourcePoint" />
        <mxPoint x="600" y="330" as="targetPoint" />
        <Array as="points">
          <mxPoint x="540" y="380" />
        </Array>
      </mxGeometry>
    </mxCell>
    <mxCell id="uN_Ylqg2Y2n6OK2aKx1O-41" value="Writes to" style="endArrow=classic;html=1;rounded=0;exitX=0.5;exitY=0;exitDx=0;exitDy=0;entryX=0.5;entryY=1;entryDx=0;entryDy=0;dashed=1;" parent="1" source="uN_Ylqg2Y2n6OK2aKx1O-7" target="uN_Ylqg2Y2n6OK2aKx1O-12" edge="1">
      <mxGeometry width="50" height="50" relative="1" as="geometry">
        <mxPoint x="500" y="200" as="sourcePoint" />
        <mxPoint x="550" y="150" as="targetPoint" />
        <Array as="points">
          <mxPoint x="490" y="380" />
        </Array>
      </mxGeometry>
    </mxCell>
  </root>
</mxGraphModel>
